<svg width="203" height="203" viewBox="0 0 203 203" fill="none" xmlns="http://www.w3.org/2000/svg">
<circle cx="101.5" cy="101.5" r="101.5" fill="#FBF6F2"/>
<path d="M130.16 142.88C127.216 142.88 125.136 141.888 123.92 139.904C122.768 137.92 122.192 135.552 122.192 132.8C122.192 129.664 122.768 125.984 123.92 121.76C125.072 117.536 126.576 113.12 128.432 108.512C130.352 103.84 132.432 99.296 134.672 94.88C136.976 90.4 139.248 86.368 141.488 82.784C143.792 79.136 145.904 76.256 147.824 74.144C149.808 71.968 151.376 70.88 152.528 70.88C153.296 70.88 153.936 71.296 154.448 72.128C155.024 72.96 155.472 73.984 155.792 75.2C156.112 76.352 156.272 77.408 156.272 78.368C156.272 80.096 155.824 82.368 154.928 85.184C154.096 87.936 152.88 91.008 151.28 94.4C149.744 97.728 147.888 101.152 145.712 104.672C143.6 108.128 141.264 111.456 138.704 114.656C136.144 117.792 133.392 120.512 130.448 122.816C130.192 124.416 129.936 126.016 129.68 127.616C129.488 129.216 129.392 130.688 129.392 132.032C129.392 134.4 129.744 136.16 130.448 137.312C131.216 138.4 132.24 138.944 133.52 138.944C135.184 138.944 136.848 138.176 138.512 136.64C140.24 135.104 141.872 133.184 143.408 130.88C144.944 128.512 146.288 126.08 147.44 123.584L149.456 124.736C146.768 130.304 143.792 134.72 140.528 137.984C137.264 141.248 133.808 142.88 130.16 142.88ZM131.888 117.728C134.128 115.424 136.24 112.864 138.224 110.048C140.208 107.232 142.032 104.352 143.696 101.408C145.424 98.4 146.928 95.52 148.208 92.768C149.488 89.952 150.48 87.456 151.184 85.28C151.888 83.04 152.272 81.28 152.336 80C152.336 79.744 152.304 79.584 152.24 79.52C152.176 79.392 152.144 79.328 152.144 79.328C151.632 79.328 150.768 80.096 149.552 81.632C148.4 83.104 147.024 85.12 145.424 87.68C143.888 90.24 142.288 93.184 140.624 96.512C138.96 99.84 137.36 103.328 135.824 106.976C134.288 110.624 132.976 114.208 131.888 117.728Z" fill="#6C9F7F"/>
<path d="M94.936 151.136C91.7787 151.136 88.2373 150.496 84.312 149.216C80.3867 147.936 76.3333 146.4 72.152 144.608C68.056 142.816 64.0453 141.109 60.12 139.488C57.9867 141.792 55.6827 143.584 53.208 144.864C50.7333 146.144 48.088 146.784 45.272 146.784C42.2853 146.784 39.7253 146.101 37.592 144.736C35.3733 143.456 33.7093 141.877 32.6 140C31.4053 138.123 30.808 136.416 30.808 134.88C30.808 133.173 31.576 131.68 33.112 130.4C34.648 129.12 37.3787 128.48 41.304 128.48C43.608 128.48 46.1253 128.736 48.856 129.248C51.672 129.675 54.5307 130.272 57.432 131.04C59.3947 127.627 61.1867 123.616 62.808 119.008C64.5147 114.4 66.1787 109.579 67.8 104.544C69.4213 99.424 71.0427 94.432 72.664 89.568C68.3973 88.1173 65.112 86.112 62.808 83.552C60.504 80.9067 59.352 78.2613 59.352 75.616C59.352 73.9093 59.7787 72.2453 60.632 70.624C61.4853 68.9173 62.7227 67.5093 64.344 66.4C65.9653 65.2053 67.8853 64.608 70.104 64.608C68.9947 65.9733 68.2693 67.5093 67.928 69.216C67.672 70.9227 67.544 72.288 67.544 73.312C67.544 76.128 68.184 78.5173 69.464 80.48C70.744 82.4427 72.3227 83.9787 74.2 85.088C75.8213 80.224 77.528 75.5733 79.32 71.136C81.1973 66.6133 83.2453 62.6453 85.464 59.232C87.768 55.7333 90.2853 52.96 93.016 50.912C95.832 48.864 98.9893 47.84 102.488 47.84C104.451 47.84 106.499 48.2667 108.632 49.12C110.851 49.888 112.728 51.2533 114.264 53.216C115.885 55.1787 116.696 57.9947 116.696 61.664C116.696 64.5653 116.056 67.68 114.776 71.008C113.581 74.336 111.661 77.536 109.016 80.608C106.371 83.5947 102.957 86.112 98.776 88.16C94.68 90.1227 89.688 91.1893 83.8 91.36C83.6293 91.36 83.416 91.36 83.16 91.36C82.9893 91.36 82.8187 91.36 82.648 91.36C81.0267 96.3093 79.32 101.301 77.528 106.336C75.736 111.371 73.816 116.192 71.768 120.8C69.72 125.408 67.5013 129.504 65.112 133.088C68.44 134.027 72.1093 135.093 76.12 136.288C80.216 137.483 84.2693 138.507 88.28 139.36C92.376 140.128 95.96 140.512 99.032 140.512C101.08 140.512 102.957 140.299 104.664 139.872C106.456 139.36 108.333 138.635 110.296 137.696C108.589 142.475 106.456 145.888 103.896 147.936C101.421 150.069 98.4347 151.136 94.936 151.136ZM43.992 142.048C46.2107 142.048 48.0027 141.536 49.368 140.512C50.7333 139.573 52.0987 138.379 53.464 136.928C50.8187 135.989 48.344 135.221 46.04 134.624C43.736 133.941 41.7307 133.6 40.024 133.6C38.4027 133.6 37.2507 133.899 36.568 134.496C35.8 135.093 35.416 135.819 35.416 136.672C35.416 138.037 36.2693 139.275 37.976 140.384C39.6827 141.493 41.688 142.048 43.992 142.048ZM84.056 87.136C87.8107 86.88 91.1387 85.6853 94.04 83.552C96.9413 81.4187 99.416 78.8587 101.464 75.872C103.512 72.8853 105.048 69.856 106.072 66.784C107.181 63.6267 107.736 60.896 107.736 58.592C107.736 56.3733 107.309 54.88 106.456 54.112C105.603 53.2587 104.621 52.832 103.512 52.832C101.037 52.832 98.6907 54.4107 96.472 57.568C94.2533 60.7253 92.12 64.9067 90.072 70.112C88.1093 75.232 86.104 80.9067 84.056 87.136Z" fill="#6C9F7F"/>
</svg>
